<svg width="300" height="300" xmlns="http://www.w3.org/2000/svg">
 <defs>
  <style>.cls-1{fill:gray;}</style>
 </defs>
 <title>icons_all</title>
 <g>
  <title>background</title>
  <rect fill="none" id="canvas_background" height="302" width="302" y="-1" x="-1"/>
 </g>
 <g>
  <title>Layer 1</title>
  <ellipse stroke="null" ry="134.500001" rx="135.499999" id="svg_5" cy="147.500001" cx="151.499999" stroke-opacity="null" stroke-width="null" fill="#c9000d"/>
  <polyline id="svg_1" points="192.75,140 288,140 288,159 191.75,159 " class="cls-1"/>
  <polyline id="svg_2" points="107.23 159 14 159 14 140 106.22 140" class="cls-1"/>
  <path id="svg_3" d="m149.75,25.25a123.25,123.25 0 0 1 87.15,210.4a123.25,123.25 0 1 1 -174.3,-174.3a122.44,122.44 0 0 1 87.15,-36.1m0,-19a142.25,142.25 0 1 0 142.25,142.25a142.25,142.25 0 0 0 -142.25,-142.25z" class="cls-1"/>
  <path fill="#00ff55" id="svg_4" d="m147.72,115.77a33,33 0 1 1 -33,33a33,33 0 0 1 33,-33m0,-19a52,52 0 1 0 52,52a52.06,52.06 0 0 0 -52,-52z" class="cls-1"/>
 </g>
</svg>